<svg width="20" height="20" viewBox="0 0 20 20" fill="none" xmlns="http://www.w3.org/2000/svg">
<path d="M10 18.3333C14.6025 18.3333 18.3333 14.6025 18.3333 9.99999C18.3333 5.39749 14.6025 1.66666 10 1.66666C5.39751 1.66666 1.66667 5.39749 1.66667 9.99999C1.66667 14.6025 5.39751 18.3333 10 18.3333Z" stroke="white" stroke-width="2" stroke-linejoin="round"/>
<path d="M10 7.5C10.3315 7.5 10.6495 7.3683 10.8839 7.13388C11.1183 6.89946 11.25 6.58152 11.25 6.25C11.25 5.91848 11.1183 5.60054 10.8839 5.36612C10.6495 5.1317 10.3315 5 10 5C9.66848 5 9.35054 5.1317 9.11612 5.36612C8.8817 5.60054 8.75 5.91848 8.75 6.25C8.75 6.58152 8.8817 6.89946 9.11612 7.13388C9.35054 7.3683 9.66848 7.5 10 7.5Z" stroke="white" stroke-width="1.5" stroke-linejoin="round"/>
<path d="M10 15C10.3315 15 10.6495 14.8683 10.8839 14.6339C11.1183 14.3995 11.25 14.0815 11.25 13.75C11.25 13.4185 11.1183 13.1005 10.8839 12.8661C10.6495 12.6317 10.3315 12.5 10 12.5C9.66848 12.5 9.35054 12.6317 9.11612 12.8661C8.8817 13.1005 8.75 13.4185 8.75 13.75C8.75 14.0815 8.8817 14.3995 9.11612 14.6339C9.35054 14.8683 9.66848 15 10 15Z" stroke="white" stroke-width="1.5" stroke-linejoin="round"/>
<path d="M6.25 11.25C6.58152 11.25 6.89946 11.1183 7.13388 10.8839C7.3683 10.6495 7.5 10.3315 7.5 10C7.5 9.66848 7.3683 9.35054 7.13388 9.11612C6.89946 8.8817 6.58152 8.75 6.25 8.75C5.91848 8.75 5.60054 8.8817 5.36612 9.11612C5.1317 9.35054 5 9.66848 5 10C5 10.3315 5.1317 10.6495 5.36612 10.8839C5.60054 11.1183 5.91848 11.25 6.25 11.25V11.25Z" stroke="white" stroke-width="1.5" stroke-linejoin="round"/>
<path d="M13.75 11.25C14.0815 11.25 14.3995 11.1183 14.6339 10.8839C14.8683 10.6495 15 10.3315 15 10C15 9.66848 14.8683 9.35054 14.6339 9.11612C14.3995 8.8817 14.0815 8.75 13.75 8.75C13.4185 8.75 13.1005 8.8817 12.8661 9.11612C12.6317 9.35054 12.5 9.66848 12.5 10C12.5 10.3315 12.6317 10.6495 12.8661 10.8839C13.1005 11.1183 13.4185 11.25 13.75 11.25Z" stroke="white" stroke-width="1.5" stroke-linejoin="round"/>
<path d="M10 18.3333H18.3333" stroke="white" stroke-linecap="round"/>
</svg>
